#!OML:ASF E:\Steps\Project 1\Capture day 1\Session 2\Subject.ASF
:FULLY-SPECIFIED
:DEGREES
33
root 16.7426 19.6706 20.7593 -154.01 -4.06729 176.96
lowerback -30.1726 -2.83495 -8.38089
upperback -0.0967631 -1.28699 0.00800344
thorax 15.956 -1.41326 3.97657
lowerneck -3.45493 -0.544716 -1.09146
upperneck 15.8519 -2.43633 5.93018
head 5.41596 -1.22162 1.86232
rclavicle -5.26779e-015 -3.57812e-014
rhumerus -39.6703 -22.8942 -73.8677
rradius 31.9492
rwrist -1.00696
rhand -8.02096 -50.3173
rfingers 7.12502
rthumb 17.8887 -79.5145
lclavicle -5.26779e-015 -3.57812e-014
lhumerus -31.8463 9.02423 79.3705
lradius 19.8998
lwrist -5.80101
lhand -21.0636 -10.254
lfingers 7.12502
lthumb 5.31297 19.6594
rfemur -22.5874 4.45184 19.7465
rtibia 5.50672
rfoot -19.2038 -1.43613
rtoes -19.6641
lfemur -23.6338 -7.77262 -23.0312
ltibia 8.04878
lfoot -6.78437 -2.1244
ltoes -36.7264
34
root 16.7438 19.674 20.7604 -154.139 -4.12034 176.98
lowerback -30.029 -2.79511 -8.32998
upperback -0.106682 -1.26233 0.00236552
thorax 15.8746 -1.39397 3.95739
lowerneck -3.37391 -0.475658 -1.03539
upperneck 15.798 -2.338 5.91049
head 5.38096 -1.17348 1.85284
rclavicle -1.07841e-014 -5.36719e-015
rhumerus -39.782 -22.6869 -73.9374
rradius 32.2095
rwrist -1.24918
rhand -7.77404 -49.6947
rfingers 7.12502
rthumb 18.1262 -78.8701
lclavicle -1.07841e-014 -5.36719e-015
lhumerus -31.8612 8.80844 79.4702
lradius 19.9617
lwrist -5.65588
lhand -21.0759 -10.5377
lfingers 7.12502
lthumb 5.3011 19.376
rfemur -22.367 4.61955 19.7249
rtibia 5.31737
rfoot -19.1189 -1.54729
rtoes -18.9015
lfemur -23.4521 -7.78574 -23.0126
ltibia 7.94844
lfoot -6.67691 -2.0928
ltoes -37.1235
35
root 16.7464 19.6724 20.7644 -154.096 -4.11858 177.057
lowerback -30.0715 -2.7082 -8.23009
upperback -0.117356 -1.17829 -0.0198036
thorax 15.8691 -1.34925 3.91301
lowerneck -3.3175 -0.453039 -0.975182
upperneck 15.7928 -2.31884 5.93065
head 5.36876 -1.16208 1.85038
rclavicle 1.2424e-015 2.98177e-015
rhumerus -39.8152 -22.7636 -73.9508
rradius 32.3647
rwrist -1.24575
rhand -7.5474 -51.3188
rfingers 7.12502
rthumb 18.3443 -80.4739
lclavicle 1.2424e-015 2.98177e-015
lhumerus -31.7424 8.49358 79.5631
lradius 19.9943
lwrist -5.36866
lhand -20.8802 -10.7665
lfingers 7.12502
lthumb 5.48999 19.1423
rfemur -22.4577 4.56835 19.8628
rtibia 5.38085
rfoot -19.1139 -1.52226
rtoes -18.9904
lfemur -23.5164 -7.77042 -22.8922
ltibia 7.92381
lfoot -6.56879 -2.05493
ltoes -36.5465
36
root 16.748 19.6725 20.7672 -154.113 -4.1222 177.036
lowerback -30.0705 -2.67194 -8.22088
upperback -0.0755817 -1.11969 -0.0681522
thorax 15.9095 -1.32179 3.87933
lowerneck -3.37555 -0.474019 -0.895651
upperneck 15.8378 -2.35745 5.91535
head 5.39356 -1.1762 1.82982
rclavicle 4.96962e-017 6.55989e-015
rhumerus -39.7625 -22.7923 -74.0501
rradius 32.5051
rwrist -1.27574
rhand -7.4586 -51.8486
rfingers 7.12502
rthumb 18.4297 -80.9956
lclavicle 4.96962e-017 6.55989e-015
lhumerus -31.5573 8.04239 79.68
lradius 20.0607
lwrist -4.95867
lhand -20.7303 -10.7005
lfingers 7.12502
lthumb 5.63477 19.2046
rfemur -22.4572 4.49465 19.8705
rtibia 5.43785
rfoot -19.1468 -1.44645
rtoes -18.7977
lfemur -23.514 -7.81413 -22.8978
ltibia 7.92682
lfoot -6.57901 -2.05222
ltoes -35.9346
37
root 16.7478 19.6718 20.7665 -154.113 -4.11684 177.013
lowerback -30.1814 -2.6447 -8.28595
upperback -0.0113996 -1.04264 -0.0588866
thorax 16.0283 -1.29707 3.95475
lowerneck -3.50381 -0.649062 -0.818132
upperneck 16.0394 -2.61229 5.79794
head 5.48596 -1.30209 1.76449
rclavicle -2.10712e-014 -1.43125e-014
rhumerus -39.6887 -22.5403 -74.176
rradius 32.7469
rwrist -1.63384
rhand -7.46254 -52.1854
rfingers 7.12502
rthumb 18.4259 -81.3327
lclavicle -2.10712e-014 -1.43125e-014
lhumerus -31.3641 7.85644 79.8415
lradius 20.0955
lwrist -4.93296
lhand -20.7969 -10.6987
lfingers 7.12502
lthumb 5.57041 19.2081
rfemur -22.4159 4.59106 19.7888
rtibia 5.34849
rfoot -19.0762 -1.4037
rtoes -17.9449
lfemur -23.5071 -7.82074 -22.9424
ltibia 7.93663
lfoot -6.61095 -2.07879
ltoes -36.0169
38
root 16.7468 19.6734 20.7643 -154.183 -4.10393 177.069
lowerback -30.1981 -2.61771 -8.15003
upperback 0.0231206 -1.04723 -0.0531039
thorax 16.0783 -1.28928 3.88633
lowerneck -3.58752 -0.864465 -0.864002
upperneck 16.294 -2.93442 5.73493
head 5.59103 -1.4686 1.73214
rclavicle 8.59744e-015 -1.21259e-014
rhumerus -39.5504 -22.2516 -74.3197
rradius 32.8585
rwrist -1.84925
rhand -7.44419 -52.535
rfingers 7.12502
rthumb 18.4436 -81.6806
lclavicle 8.59744e-015 -1.21259e-014
lhumerus -31.3964 7.96185 79.849
lradius 20.3005
lwrist -5.06333
lhand -21.0398 -10.8634
lfingers 7.12502
lthumb 5.33592 19.0494
rfemur -22.3483 4.66627 19.8015
rtibia 5.32715
rfoot -19.0106 -1.39512
rtoes -17.575
lfemur -23.4364 -7.93879 -22.8625
ltibia 7.96356
lfoot -6.69766 -1.87663
ltoes -36.6509
